<mxfile host="app.diagrams.net" modified="2021-05-15T04:41:13.689Z" agent="5.0 (Windows NT 10.0; Win64; x64) AppleWebKit/537.36 (KHTML, like Gecko) Chrome/90.0.4430.93 Safari/537.36 Edg/90.0.818.56" etag="ufDroBpDEiVoAaHmpxEh" version="14.6.9" type="github">
  <diagram id="uzVWuI1P-TR0KRMASuwx" name="Page-1">
    <mxGraphModel dx="785" dy="520" grid="0" gridSize="10" guides="1" tooltips="1" connect="1" arrows="1" fold="1" page="1" pageScale="1" pageWidth="827" pageHeight="1169" math="0" shadow="0">
      <root>
        <mxCell id="0" />
        <mxCell id="1" parent="0" />
        <mxCell id="XByTLXD1ZILqwCPSWzRJ-2" value="" style="rounded=0;whiteSpace=wrap;html=1;" vertex="1" parent="1">
          <mxGeometry x="120" y="130" width="290" height="200" as="geometry" />
        </mxCell>
        <mxCell id="XByTLXD1ZILqwCPSWzRJ-3" value="" style="rounded=0;whiteSpace=wrap;html=1;" vertex="1" parent="1">
          <mxGeometry x="440" y="130" width="290" height="200" as="geometry" />
        </mxCell>
        <mxCell id="XByTLXD1ZILqwCPSWzRJ-4" value="" style="rounded=0;whiteSpace=wrap;html=1;" vertex="1" parent="1">
          <mxGeometry x="120" y="340" width="290" height="200" as="geometry" />
        </mxCell>
        <mxCell id="XByTLXD1ZILqwCPSWzRJ-5" value="" style="rounded=0;whiteSpace=wrap;html=1;" vertex="1" parent="1">
          <mxGeometry x="440" y="340" width="290" height="200" as="geometry" />
        </mxCell>
        <mxCell id="XByTLXD1ZILqwCPSWzRJ-6" value="单表查询" style="text;html=1;strokeColor=none;fillColor=none;align=center;verticalAlign=middle;whiteSpace=wrap;rounded=0;" vertex="1" parent="1">
          <mxGeometry x="230" y="140" width="60" height="20" as="geometry" />
        </mxCell>
        <mxCell id="XByTLXD1ZILqwCPSWzRJ-7" value="多表查询" style="text;html=1;strokeColor=none;fillColor=none;align=center;verticalAlign=middle;whiteSpace=wrap;rounded=0;" vertex="1" parent="1">
          <mxGeometry x="555" y="140" width="50" height="20" as="geometry" />
        </mxCell>
        <mxCell id="XByTLXD1ZILqwCPSWzRJ-8" value="" style="rounded=0;whiteSpace=wrap;html=1;fillColor=#f5f5f5;strokeColor=#666666;fontColor=#333333;" vertex="1" parent="1">
          <mxGeometry x="245" y="170" width="30" height="140" as="geometry" />
        </mxCell>
        <mxCell id="XByTLXD1ZILqwCPSWzRJ-9" value="q" style="text;html=1;strokeColor=none;fillColor=none;align=center;verticalAlign=middle;whiteSpace=wrap;rounded=0;" vertex="1" parent="1">
          <mxGeometry x="130" y="230" width="20" height="20" as="geometry" />
        </mxCell>
        <mxCell id="XByTLXD1ZILqwCPSWzRJ-10" value="h(q)" style="text;html=1;strokeColor=none;fillColor=none;align=center;verticalAlign=middle;whiteSpace=wrap;rounded=0;" vertex="1" parent="1">
          <mxGeometry x="170" y="230" width="40" height="20" as="geometry" />
        </mxCell>
        <mxCell id="XByTLXD1ZILqwCPSWzRJ-11" value="" style="endArrow=classic;html=1;exitX=1;exitY=0.5;exitDx=0;exitDy=0;entryX=0;entryY=0.5;entryDx=0;entryDy=0;" edge="1" parent="1" source="XByTLXD1ZILqwCPSWzRJ-9" target="XByTLXD1ZILqwCPSWzRJ-10">
          <mxGeometry width="50" height="50" relative="1" as="geometry">
            <mxPoint x="160" y="320" as="sourcePoint" />
            <mxPoint x="210" y="270" as="targetPoint" />
          </mxGeometry>
        </mxCell>
        <mxCell id="XByTLXD1ZILqwCPSWzRJ-12" value="" style="endArrow=classic;html=1;exitX=1;exitY=0.5;exitDx=0;exitDy=0;entryX=0;entryY=0.5;entryDx=0;entryDy=0;" edge="1" parent="1" source="XByTLXD1ZILqwCPSWzRJ-10" target="XByTLXD1ZILqwCPSWzRJ-8">
          <mxGeometry width="50" height="50" relative="1" as="geometry">
            <mxPoint x="200" y="270" as="sourcePoint" />
            <mxPoint x="250" y="220" as="targetPoint" />
          </mxGeometry>
        </mxCell>
        <mxCell id="XByTLXD1ZILqwCPSWzRJ-13" value="" style="endArrow=classic;html=1;exitX=1;exitY=0.5;exitDx=0;exitDy=0;entryX=-0.067;entryY=0.15;entryDx=0;entryDy=0;entryPerimeter=0;" edge="1" parent="1" source="XByTLXD1ZILqwCPSWzRJ-10" target="XByTLXD1ZILqwCPSWzRJ-8">
          <mxGeometry width="50" height="50" relative="1" as="geometry">
            <mxPoint x="180" y="320" as="sourcePoint" />
            <mxPoint x="60" y="320" as="targetPoint" />
            <Array as="points">
              <mxPoint x="210" y="190" />
            </Array>
          </mxGeometry>
        </mxCell>
        <mxCell id="XByTLXD1ZILqwCPSWzRJ-14" value="" style="endArrow=classic;html=1;exitX=1;exitY=0.5;exitDx=0;exitDy=0;entryX=-0.017;entryY=0.85;entryDx=0;entryDy=0;entryPerimeter=0;" edge="1" parent="1" source="XByTLXD1ZILqwCPSWzRJ-10" target="XByTLXD1ZILqwCPSWzRJ-8">
          <mxGeometry width="50" height="50" relative="1" as="geometry">
            <mxPoint x="180" y="320" as="sourcePoint" />
            <mxPoint x="230" y="270" as="targetPoint" />
            <Array as="points">
              <mxPoint x="210" y="290" />
            </Array>
          </mxGeometry>
        </mxCell>
        <mxCell id="XByTLXD1ZILqwCPSWzRJ-15" value="" style="ellipse;whiteSpace=wrap;html=1;aspect=fixed;" vertex="1" parent="1">
          <mxGeometry x="250" y="180" width="20" height="20" as="geometry" />
        </mxCell>
        <mxCell id="XByTLXD1ZILqwCPSWzRJ-16" value="" style="ellipse;whiteSpace=wrap;html=1;aspect=fixed;" vertex="1" parent="1">
          <mxGeometry x="250" y="200" width="20" height="20" as="geometry" />
        </mxCell>
        <mxCell id="XByTLXD1ZILqwCPSWzRJ-17" value="" style="ellipse;whiteSpace=wrap;html=1;aspect=fixed;" vertex="1" parent="1">
          <mxGeometry x="250" y="220" width="20" height="20" as="geometry" />
        </mxCell>
        <mxCell id="XByTLXD1ZILqwCPSWzRJ-19" value="" style="ellipse;whiteSpace=wrap;html=1;aspect=fixed;" vertex="1" parent="1">
          <mxGeometry x="250" y="280" width="20" height="20" as="geometry" />
        </mxCell>
        <mxCell id="XByTLXD1ZILqwCPSWzRJ-20" value="" style="ellipse;whiteSpace=wrap;html=1;aspect=fixed;" vertex="1" parent="1">
          <mxGeometry x="250" y="260" width="20" height="20" as="geometry" />
        </mxCell>
        <mxCell id="XByTLXD1ZILqwCPSWzRJ-22" value="" style="endArrow=none;dashed=1;html=1;dashPattern=1 3;strokeWidth=2;entryX=0.5;entryY=1;entryDx=0;entryDy=0;exitX=0.5;exitY=0;exitDx=0;exitDy=0;" edge="1" parent="1" source="XByTLXD1ZILqwCPSWzRJ-20" target="XByTLXD1ZILqwCPSWzRJ-17">
          <mxGeometry width="50" height="50" relative="1" as="geometry">
            <mxPoint x="390" y="340" as="sourcePoint" />
            <mxPoint x="440" y="290" as="targetPoint" />
          </mxGeometry>
        </mxCell>
        <mxCell id="XByTLXD1ZILqwCPSWzRJ-25" value="" style="endArrow=classic;html=1;entryX=0;entryY=0.5;entryDx=0;entryDy=0;" edge="1" parent="1" source="XByTLXD1ZILqwCPSWzRJ-15" target="XByTLXD1ZILqwCPSWzRJ-26">
          <mxGeometry width="50" height="50" relative="1" as="geometry">
            <mxPoint x="390" y="340" as="sourcePoint" />
            <mxPoint x="440" y="290" as="targetPoint" />
          </mxGeometry>
        </mxCell>
        <mxCell id="XByTLXD1ZILqwCPSWzRJ-26" value="" style="rounded=0;whiteSpace=wrap;html=1;" vertex="1" parent="1">
          <mxGeometry x="300" y="180" width="30" height="20" as="geometry" />
        </mxCell>
        <mxCell id="XByTLXD1ZILqwCPSWzRJ-28" value="" style="rounded=0;whiteSpace=wrap;html=1;" vertex="1" parent="1">
          <mxGeometry x="330" y="180" width="30" height="20" as="geometry" />
        </mxCell>
        <mxCell id="XByTLXD1ZILqwCPSWzRJ-29" value="" style="rounded=0;whiteSpace=wrap;html=1;" vertex="1" parent="1">
          <mxGeometry x="300" y="280" width="30" height="20" as="geometry" />
        </mxCell>
        <mxCell id="XByTLXD1ZILqwCPSWzRJ-30" value="" style="rounded=0;whiteSpace=wrap;html=1;" vertex="1" parent="1">
          <mxGeometry x="330" y="280" width="30" height="20" as="geometry" />
        </mxCell>
        <mxCell id="XByTLXD1ZILqwCPSWzRJ-31" value="" style="rounded=0;whiteSpace=wrap;html=1;" vertex="1" parent="1">
          <mxGeometry x="360" y="280" width="30" height="20" as="geometry" />
        </mxCell>
        <mxCell id="XByTLXD1ZILqwCPSWzRJ-32" value="" style="endArrow=classic;html=1;exitX=1;exitY=0.5;exitDx=0;exitDy=0;" edge="1" parent="1" source="XByTLXD1ZILqwCPSWzRJ-19">
          <mxGeometry width="50" height="50" relative="1" as="geometry">
            <mxPoint x="390" y="340" as="sourcePoint" />
            <mxPoint x="300" y="290" as="targetPoint" />
          </mxGeometry>
        </mxCell>
        <mxCell id="XByTLXD1ZILqwCPSWzRJ-33" value="" style="rounded=0;whiteSpace=wrap;html=1;" vertex="1" parent="1">
          <mxGeometry x="300" y="220" width="30" height="20" as="geometry" />
        </mxCell>
        <mxCell id="XByTLXD1ZILqwCPSWzRJ-34" value="" style="endArrow=classic;html=1;entryX=0;entryY=0.5;entryDx=0;entryDy=0;exitX=1;exitY=0.5;exitDx=0;exitDy=0;" edge="1" parent="1" source="XByTLXD1ZILqwCPSWzRJ-17" target="XByTLXD1ZILqwCPSWzRJ-33">
          <mxGeometry width="50" height="50" relative="1" as="geometry">
            <mxPoint x="280" y="200" as="sourcePoint" />
            <mxPoint x="310" y="200" as="targetPoint" />
          </mxGeometry>
        </mxCell>
        <mxCell id="XByTLXD1ZILqwCPSWzRJ-35" value="哈希码排名" style="text;html=1;strokeColor=none;fillColor=none;align=center;verticalAlign=middle;whiteSpace=wrap;rounded=0;" vertex="1" parent="1">
          <mxGeometry x="227.5" y="350" width="65" height="20" as="geometry" />
        </mxCell>
        <mxCell id="XByTLXD1ZILqwCPSWzRJ-41" value="" style="rounded=0;whiteSpace=wrap;html=1;fillColor=#f5f5f5;strokeColor=#666666;fontColor=#333333;" vertex="1" parent="1">
          <mxGeometry x="500" y="180" width="30" height="140" as="geometry" />
        </mxCell>
        <mxCell id="XByTLXD1ZILqwCPSWzRJ-42" value="" style="ellipse;whiteSpace=wrap;html=1;aspect=fixed;" vertex="1" parent="1">
          <mxGeometry x="505" y="190" width="20" height="20" as="geometry" />
        </mxCell>
        <mxCell id="XByTLXD1ZILqwCPSWzRJ-43" value="" style="ellipse;whiteSpace=wrap;html=1;aspect=fixed;" vertex="1" parent="1">
          <mxGeometry x="505" y="230" width="20" height="20" as="geometry" />
        </mxCell>
        <mxCell id="XByTLXD1ZILqwCPSWzRJ-44" value="" style="ellipse;whiteSpace=wrap;html=1;aspect=fixed;" vertex="1" parent="1">
          <mxGeometry x="505" y="270" width="20" height="20" as="geometry" />
        </mxCell>
        <mxCell id="XByTLXD1ZILqwCPSWzRJ-45" value="" style="rounded=0;whiteSpace=wrap;html=1;fillColor=#f5f5f5;strokeColor=#666666;fontColor=#333333;" vertex="1" parent="1">
          <mxGeometry x="620" y="180" width="30" height="140" as="geometry" />
        </mxCell>
        <mxCell id="XByTLXD1ZILqwCPSWzRJ-46" value="" style="ellipse;whiteSpace=wrap;html=1;aspect=fixed;" vertex="1" parent="1">
          <mxGeometry x="625" y="190" width="20" height="20" as="geometry" />
        </mxCell>
        <mxCell id="XByTLXD1ZILqwCPSWzRJ-47" value="" style="ellipse;whiteSpace=wrap;html=1;aspect=fixed;" vertex="1" parent="1">
          <mxGeometry x="625" y="230" width="20" height="20" as="geometry" />
        </mxCell>
        <mxCell id="XByTLXD1ZILqwCPSWzRJ-48" value="" style="ellipse;whiteSpace=wrap;html=1;aspect=fixed;" vertex="1" parent="1">
          <mxGeometry x="625" y="270" width="20" height="20" as="geometry" />
        </mxCell>
        <mxCell id="XByTLXD1ZILqwCPSWzRJ-49" value="" style="ellipse;whiteSpace=wrap;html=1;aspect=fixed;" vertex="1" parent="1">
          <mxGeometry x="505" y="210" width="20" height="20" as="geometry" />
        </mxCell>
        <mxCell id="XByTLXD1ZILqwCPSWzRJ-50" value="" style="ellipse;whiteSpace=wrap;html=1;aspect=fixed;" vertex="1" parent="1">
          <mxGeometry x="505" y="290" width="20" height="20" as="geometry" />
        </mxCell>
        <mxCell id="XByTLXD1ZILqwCPSWzRJ-51" value="" style="ellipse;whiteSpace=wrap;html=1;aspect=fixed;" vertex="1" parent="1">
          <mxGeometry x="625" y="210" width="20" height="20" as="geometry" />
        </mxCell>
        <mxCell id="XByTLXD1ZILqwCPSWzRJ-52" value="" style="ellipse;whiteSpace=wrap;html=1;aspect=fixed;" vertex="1" parent="1">
          <mxGeometry x="625" y="290" width="20" height="20" as="geometry" />
        </mxCell>
        <mxCell id="XByTLXD1ZILqwCPSWzRJ-54" value="q" style="text;html=1;strokeColor=none;fillColor=none;align=center;verticalAlign=middle;whiteSpace=wrap;rounded=0;" vertex="1" parent="1">
          <mxGeometry x="460" y="160" width="20" height="20" as="geometry" />
        </mxCell>
        <mxCell id="XByTLXD1ZILqwCPSWzRJ-55" value="" style="endArrow=classic;html=1;exitX=1;exitY=0.5;exitDx=0;exitDy=0;entryX=0;entryY=0.136;entryDx=0;entryDy=0;entryPerimeter=0;" edge="1" parent="1" source="XByTLXD1ZILqwCPSWzRJ-54" target="XByTLXD1ZILqwCPSWzRJ-45">
          <mxGeometry width="50" height="50" relative="1" as="geometry">
            <mxPoint x="560" y="90" as="sourcePoint" />
            <mxPoint x="610" y="40" as="targetPoint" />
            <Array as="points">
              <mxPoint x="600" y="170" />
              <mxPoint x="600" y="199" />
            </Array>
          </mxGeometry>
        </mxCell>
        <mxCell id="XByTLXD1ZILqwCPSWzRJ-56" value="" style="endArrow=classic;html=1;exitX=1;exitY=0.5;exitDx=0;exitDy=0;entryX=-0.083;entryY=0.304;entryDx=0;entryDy=0;entryPerimeter=0;" edge="1" parent="1" source="XByTLXD1ZILqwCPSWzRJ-54" target="XByTLXD1ZILqwCPSWzRJ-41">
          <mxGeometry width="50" height="50" relative="1" as="geometry">
            <mxPoint x="270" y="80" as="sourcePoint" />
            <mxPoint x="320" y="30" as="targetPoint" />
            <Array as="points">
              <mxPoint x="480" y="223" />
            </Array>
          </mxGeometry>
        </mxCell>
        <mxCell id="XByTLXD1ZILqwCPSWzRJ-57" value="" style="endArrow=none;dashed=1;html=1;dashPattern=1 3;strokeWidth=2;entryX=0.5;entryY=0;entryDx=0;entryDy=0;exitX=0.5;exitY=1;exitDx=0;exitDy=0;" edge="1" parent="1" source="XByTLXD1ZILqwCPSWzRJ-43" target="XByTLXD1ZILqwCPSWzRJ-44">
          <mxGeometry width="50" height="50" relative="1" as="geometry">
            <mxPoint x="560" y="70" as="sourcePoint" />
            <mxPoint x="610" y="20" as="targetPoint" />
          </mxGeometry>
        </mxCell>
        <mxCell id="XByTLXD1ZILqwCPSWzRJ-58" value="" style="endArrow=none;dashed=1;html=1;dashPattern=1 3;strokeWidth=2;exitX=1;exitY=0.5;exitDx=0;exitDy=0;entryX=0;entryY=0.5;entryDx=0;entryDy=0;" edge="1" parent="1" source="XByTLXD1ZILqwCPSWzRJ-41" target="XByTLXD1ZILqwCPSWzRJ-45">
          <mxGeometry width="50" height="50" relative="1" as="geometry">
            <mxPoint x="550" y="280" as="sourcePoint" />
            <mxPoint x="600" y="230" as="targetPoint" />
          </mxGeometry>
        </mxCell>
        <mxCell id="XByTLXD1ZILqwCPSWzRJ-59" value="" style="rounded=0;whiteSpace=wrap;html=1;" vertex="1" parent="1">
          <mxGeometry x="550" y="210" width="30" height="20" as="geometry" />
        </mxCell>
        <mxCell id="XByTLXD1ZILqwCPSWzRJ-60" value="" style="endArrow=classic;html=1;exitX=1;exitY=0.5;exitDx=0;exitDy=0;entryX=0;entryY=0.5;entryDx=0;entryDy=0;" edge="1" parent="1" source="XByTLXD1ZILqwCPSWzRJ-49" target="XByTLXD1ZILqwCPSWzRJ-59">
          <mxGeometry width="50" height="50" relative="1" as="geometry">
            <mxPoint x="580" y="70" as="sourcePoint" />
            <mxPoint x="630" y="20" as="targetPoint" />
          </mxGeometry>
        </mxCell>
        <mxCell id="XByTLXD1ZILqwCPSWzRJ-61" value="" style="rounded=0;whiteSpace=wrap;html=1;" vertex="1" parent="1">
          <mxGeometry x="550" y="290" width="30" height="20" as="geometry" />
        </mxCell>
        <mxCell id="XByTLXD1ZILqwCPSWzRJ-62" value="" style="endArrow=classic;html=1;exitX=1;exitY=0.5;exitDx=0;exitDy=0;entryX=0;entryY=0.5;entryDx=0;entryDy=0;" edge="1" parent="1" source="XByTLXD1ZILqwCPSWzRJ-50" target="XByTLXD1ZILqwCPSWzRJ-61">
          <mxGeometry width="50" height="50" relative="1" as="geometry">
            <mxPoint x="540" y="390" as="sourcePoint" />
            <mxPoint x="590" y="340" as="targetPoint" />
          </mxGeometry>
        </mxCell>
        <mxCell id="XByTLXD1ZILqwCPSWzRJ-63" value="" style="rounded=0;whiteSpace=wrap;html=1;" vertex="1" parent="1">
          <mxGeometry x="580" y="290" width="30" height="20" as="geometry" />
        </mxCell>
        <mxCell id="XByTLXD1ZILqwCPSWzRJ-64" value="" style="rounded=0;whiteSpace=wrap;html=1;" vertex="1" parent="1">
          <mxGeometry x="660" y="190" width="30" height="20" as="geometry" />
        </mxCell>
        <mxCell id="XByTLXD1ZILqwCPSWzRJ-65" value="" style="rounded=0;whiteSpace=wrap;html=1;" vertex="1" parent="1">
          <mxGeometry x="690" y="190" width="30" height="20" as="geometry" />
        </mxCell>
        <mxCell id="XByTLXD1ZILqwCPSWzRJ-66" value="" style="endArrow=classic;html=1;exitX=1;exitY=0.5;exitDx=0;exitDy=0;entryX=0;entryY=0.5;entryDx=0;entryDy=0;" edge="1" parent="1" source="XByTLXD1ZILqwCPSWzRJ-46" target="XByTLXD1ZILqwCPSWzRJ-64">
          <mxGeometry width="50" height="50" relative="1" as="geometry">
            <mxPoint x="730" y="100" as="sourcePoint" />
            <mxPoint x="780" y="50" as="targetPoint" />
          </mxGeometry>
        </mxCell>
        <mxCell id="XByTLXD1ZILqwCPSWzRJ-67" value="" style="rounded=0;whiteSpace=wrap;html=1;" vertex="1" parent="1">
          <mxGeometry x="660" y="270" width="30" height="20" as="geometry" />
        </mxCell>
        <mxCell id="XByTLXD1ZILqwCPSWzRJ-68" value="" style="endArrow=classic;html=1;exitX=1;exitY=0.5;exitDx=0;exitDy=0;entryX=0;entryY=0.5;entryDx=0;entryDy=0;" edge="1" parent="1" source="XByTLXD1ZILqwCPSWzRJ-48" target="XByTLXD1ZILqwCPSWzRJ-67">
          <mxGeometry width="50" height="50" relative="1" as="geometry">
            <mxPoint x="680" y="100" as="sourcePoint" />
            <mxPoint x="730" y="50" as="targetPoint" />
          </mxGeometry>
        </mxCell>
        <mxCell id="XByTLXD1ZILqwCPSWzRJ-69" value="哈希表1" style="text;html=1;strokeColor=none;fillColor=none;align=center;verticalAlign=middle;whiteSpace=wrap;rounded=0;" vertex="1" parent="1">
          <mxGeometry x="450" y="300" width="50" height="20" as="geometry" />
        </mxCell>
        <mxCell id="XByTLXD1ZILqwCPSWzRJ-70" value="h&lt;sub&gt;1&lt;/sub&gt;(q)" style="text;html=1;strokeColor=none;fillColor=none;align=center;verticalAlign=middle;whiteSpace=wrap;rounded=0;" vertex="1" parent="1">
          <mxGeometry x="440" y="190" width="40" height="20" as="geometry" />
        </mxCell>
        <mxCell id="XByTLXD1ZILqwCPSWzRJ-71" value="h&lt;span style=&quot;font-size: 10px&quot;&gt;&lt;sub&gt;L&lt;/sub&gt;&lt;/span&gt;(q)" style="text;html=1;strokeColor=none;fillColor=none;align=center;verticalAlign=middle;whiteSpace=wrap;rounded=0;" vertex="1" parent="1">
          <mxGeometry x="565" y="180" width="40" height="20" as="geometry" />
        </mxCell>
        <mxCell id="XByTLXD1ZILqwCPSWzRJ-72" value="哈希表L" style="text;html=1;strokeColor=none;fillColor=none;align=center;verticalAlign=middle;whiteSpace=wrap;rounded=0;" vertex="1" parent="1">
          <mxGeometry x="650" y="300" width="50" height="20" as="geometry" />
        </mxCell>
        <mxCell id="XByTLXD1ZILqwCPSWzRJ-73" value="q" style="text;html=1;strokeColor=none;fillColor=none;align=center;verticalAlign=middle;whiteSpace=wrap;rounded=0;" vertex="1" parent="1">
          <mxGeometry x="150" y="380" width="40" height="20" as="geometry" />
        </mxCell>
        <mxCell id="XByTLXD1ZILqwCPSWzRJ-74" value="h(q)" style="text;html=1;strokeColor=none;fillColor=none;align=center;verticalAlign=middle;whiteSpace=wrap;rounded=0;" vertex="1" parent="1">
          <mxGeometry x="150" y="420" width="40" height="20" as="geometry" />
        </mxCell>
        <mxCell id="XByTLXD1ZILqwCPSWzRJ-75" value="" style="endArrow=classic;html=1;exitX=0.5;exitY=1;exitDx=0;exitDy=0;entryX=0.5;entryY=0;entryDx=0;entryDy=0;" edge="1" parent="1" source="XByTLXD1ZILqwCPSWzRJ-73" target="XByTLXD1ZILqwCPSWzRJ-74">
          <mxGeometry width="50" height="50" relative="1" as="geometry">
            <mxPoint x="50" y="430" as="sourcePoint" />
            <mxPoint x="100" y="380" as="targetPoint" />
          </mxGeometry>
        </mxCell>
        <mxCell id="XByTLXD1ZILqwCPSWzRJ-76" value="距离度量" style="rounded=1;whiteSpace=wrap;html=1;" vertex="1" parent="1">
          <mxGeometry x="200" y="460" width="70" height="20" as="geometry" />
        </mxCell>
        <mxCell id="XByTLXD1ZILqwCPSWzRJ-78" value="" style="endArrow=classic;html=1;exitX=0.5;exitY=1;exitDx=0;exitDy=0;entryX=0;entryY=0.5;entryDx=0;entryDy=0;" edge="1" parent="1" source="XByTLXD1ZILqwCPSWzRJ-74" target="XByTLXD1ZILqwCPSWzRJ-76">
          <mxGeometry width="50" height="50" relative="1" as="geometry">
            <mxPoint x="30" y="460" as="sourcePoint" />
            <mxPoint x="80" y="410" as="targetPoint" />
            <Array as="points">
              <mxPoint x="170" y="470" />
            </Array>
          </mxGeometry>
        </mxCell>
        <mxCell id="XByTLXD1ZILqwCPSWzRJ-80" value="x&lt;sub&gt;1&lt;/sub&gt;" style="rounded=0;whiteSpace=wrap;html=1;" vertex="1" parent="1">
          <mxGeometry x="230" y="380" width="30" height="20" as="geometry" />
        </mxCell>
        <mxCell id="XByTLXD1ZILqwCPSWzRJ-81" value="x&lt;sub&gt;2&lt;/sub&gt;" style="rounded=0;whiteSpace=wrap;html=1;" vertex="1" parent="1">
          <mxGeometry x="260" y="380" width="30" height="20" as="geometry" />
        </mxCell>
        <mxCell id="XByTLXD1ZILqwCPSWzRJ-82" value="x&lt;sub&gt;3&lt;/sub&gt;" style="rounded=0;whiteSpace=wrap;html=1;" vertex="1" parent="1">
          <mxGeometry x="290" y="380" width="30" height="20" as="geometry" />
        </mxCell>
        <mxCell id="XByTLXD1ZILqwCPSWzRJ-83" value="```" style="rounded=0;whiteSpace=wrap;html=1;" vertex="1" parent="1">
          <mxGeometry x="320" y="380" width="30" height="20" as="geometry" />
        </mxCell>
        <mxCell id="XByTLXD1ZILqwCPSWzRJ-84" value="x&lt;sub&gt;N&lt;/sub&gt;" style="rounded=0;whiteSpace=wrap;html=1;" vertex="1" parent="1">
          <mxGeometry x="350" y="380" width="30" height="20" as="geometry" />
        </mxCell>
        <mxCell id="XByTLXD1ZILqwCPSWzRJ-87" value="" style="rounded=0;whiteSpace=wrap;html=1;fillColor=#f5f5f5;strokeColor=#666666;fontColor=#333333;" vertex="1" parent="1">
          <mxGeometry x="230" y="417.5" width="150" height="25" as="geometry" />
        </mxCell>
        <mxCell id="XByTLXD1ZILqwCPSWzRJ-88" value="" style="ellipse;whiteSpace=wrap;html=1;aspect=fixed;" vertex="1" parent="1">
          <mxGeometry x="255" y="420" width="20" height="20" as="geometry" />
        </mxCell>
        <mxCell id="XByTLXD1ZILqwCPSWzRJ-89" value="" style="ellipse;whiteSpace=wrap;html=1;aspect=fixed;" vertex="1" parent="1">
          <mxGeometry x="355" y="420" width="20" height="20" as="geometry" />
        </mxCell>
        <mxCell id="XByTLXD1ZILqwCPSWzRJ-91" value="" style="ellipse;whiteSpace=wrap;html=1;aspect=fixed;" vertex="1" parent="1">
          <mxGeometry x="335" y="420" width="20" height="20" as="geometry" />
        </mxCell>
        <mxCell id="XByTLXD1ZILqwCPSWzRJ-92" value="" style="ellipse;whiteSpace=wrap;html=1;aspect=fixed;" vertex="1" parent="1">
          <mxGeometry x="235" y="420" width="20" height="20" as="geometry" />
        </mxCell>
        <mxCell id="XByTLXD1ZILqwCPSWzRJ-93" value="" style="ellipse;whiteSpace=wrap;html=1;aspect=fixed;" vertex="1" parent="1">
          <mxGeometry x="300" y="420" width="20" height="20" as="geometry" />
        </mxCell>
        <mxCell id="XByTLXD1ZILqwCPSWzRJ-98" value="" style="endArrow=classic;html=1;exitX=0.5;exitY=1;exitDx=0;exitDy=0;entryX=0.5;entryY=0;entryDx=0;entryDy=0;" edge="1" parent="1" source="XByTLXD1ZILqwCPSWzRJ-82" target="XByTLXD1ZILqwCPSWzRJ-87">
          <mxGeometry width="50" height="50" relative="1" as="geometry">
            <mxPoint x="390" y="420" as="sourcePoint" />
            <mxPoint x="440" y="370" as="targetPoint" />
          </mxGeometry>
        </mxCell>
        <mxCell id="XByTLXD1ZILqwCPSWzRJ-99" value="" style="endArrow=classic;html=1;exitX=0.5;exitY=1;exitDx=0;exitDy=0;entryX=1;entryY=0.5;entryDx=0;entryDy=0;" edge="1" parent="1" source="XByTLXD1ZILqwCPSWzRJ-87" target="XByTLXD1ZILqwCPSWzRJ-76">
          <mxGeometry width="50" height="50" relative="1" as="geometry">
            <mxPoint x="310" y="650" as="sourcePoint" />
            <mxPoint x="360" y="600" as="targetPoint" />
            <Array as="points">
              <mxPoint x="305" y="470" />
            </Array>
          </mxGeometry>
        </mxCell>
        <mxCell id="XByTLXD1ZILqwCPSWzRJ-100" value="最近邻选择" style="rounded=1;whiteSpace=wrap;html=1;" vertex="1" parent="1">
          <mxGeometry x="200" y="500" width="70" height="20" as="geometry" />
        </mxCell>
        <mxCell id="XByTLXD1ZILqwCPSWzRJ-101" value="" style="endArrow=classic;html=1;exitX=0.5;exitY=1;exitDx=0;exitDy=0;entryX=0.5;entryY=0;entryDx=0;entryDy=0;" edge="1" parent="1" source="XByTLXD1ZILqwCPSWzRJ-76" target="XByTLXD1ZILqwCPSWzRJ-100">
          <mxGeometry width="50" height="50" relative="1" as="geometry">
            <mxPoint x="390" y="410" as="sourcePoint" />
            <mxPoint x="440" y="360" as="targetPoint" />
          </mxGeometry>
        </mxCell>
        <mxCell id="XByTLXD1ZILqwCPSWzRJ-102" value="候选集" style="text;html=1;strokeColor=none;fillColor=none;align=center;verticalAlign=middle;whiteSpace=wrap;rounded=0;" vertex="1" parent="1">
          <mxGeometry x="320" y="500" width="40" height="20" as="geometry" />
        </mxCell>
        <mxCell id="XByTLXD1ZILqwCPSWzRJ-103" value="" style="endArrow=classic;html=1;exitX=1;exitY=0.5;exitDx=0;exitDy=0;entryX=0;entryY=0.5;entryDx=0;entryDy=0;" edge="1" parent="1" source="XByTLXD1ZILqwCPSWzRJ-100" target="XByTLXD1ZILqwCPSWzRJ-102">
          <mxGeometry width="50" height="50" relative="1" as="geometry">
            <mxPoint x="240" y="640" as="sourcePoint" />
            <mxPoint x="290" y="590" as="targetPoint" />
          </mxGeometry>
        </mxCell>
        <mxCell id="XByTLXD1ZILqwCPSWzRJ-104" value="非穷举搜索" style="text;html=1;strokeColor=none;fillColor=none;align=center;verticalAlign=middle;whiteSpace=wrap;rounded=0;" vertex="1" parent="1">
          <mxGeometry x="542.5" y="350" width="75" height="20" as="geometry" />
        </mxCell>
        <mxCell id="XByTLXD1ZILqwCPSWzRJ-105" value="q" style="text;html=1;strokeColor=none;fillColor=none;align=center;verticalAlign=middle;whiteSpace=wrap;rounded=0;" vertex="1" parent="1">
          <mxGeometry x="485" y="380" width="20" height="20" as="geometry" />
        </mxCell>
        <mxCell id="XByTLXD1ZILqwCPSWzRJ-106" value="h(q)" style="text;html=1;strokeColor=none;fillColor=none;align=center;verticalAlign=middle;whiteSpace=wrap;rounded=0;" vertex="1" parent="1">
          <mxGeometry x="560" y="380" width="40" height="20" as="geometry" />
        </mxCell>
        <mxCell id="XByTLXD1ZILqwCPSWzRJ-107" value="" style="endArrow=classic;html=1;exitX=1;exitY=0.5;exitDx=0;exitDy=0;entryX=0;entryY=0.5;entryDx=0;entryDy=0;" edge="1" parent="1" source="XByTLXD1ZILqwCPSWzRJ-105" target="XByTLXD1ZILqwCPSWzRJ-106">
          <mxGeometry width="50" height="50" relative="1" as="geometry">
            <mxPoint x="590" y="490" as="sourcePoint" />
            <mxPoint x="640" y="440" as="targetPoint" />
          </mxGeometry>
        </mxCell>
        <mxCell id="XByTLXD1ZILqwCPSWzRJ-108" value="哈希表查找" style="rounded=1;whiteSpace=wrap;html=1;" vertex="1" parent="1">
          <mxGeometry x="537.5" y="417.5" width="85" height="20" as="geometry" />
        </mxCell>
        <mxCell id="XByTLXD1ZILqwCPSWzRJ-109" value="哈希码排名" style="rounded=1;whiteSpace=wrap;html=1;" vertex="1" parent="1">
          <mxGeometry x="537.5" y="500" width="85" height="20" as="geometry" />
        </mxCell>
        <mxCell id="XByTLXD1ZILqwCPSWzRJ-114" value="x&lt;sub&gt;1&lt;/sub&gt;" style="rounded=0;whiteSpace=wrap;html=1;" vertex="1" parent="1">
          <mxGeometry x="505" y="460" width="30" height="20" as="geometry" />
        </mxCell>
        <mxCell id="XByTLXD1ZILqwCPSWzRJ-115" value="x&lt;sub&gt;2&lt;/sub&gt;" style="rounded=0;whiteSpace=wrap;html=1;" vertex="1" parent="1">
          <mxGeometry x="535" y="460" width="30" height="20" as="geometry" />
        </mxCell>
        <mxCell id="XByTLXD1ZILqwCPSWzRJ-116" value="x&lt;sub&gt;3&lt;/sub&gt;" style="rounded=0;whiteSpace=wrap;html=1;" vertex="1" parent="1">
          <mxGeometry x="565" y="460" width="30" height="20" as="geometry" />
        </mxCell>
        <mxCell id="XByTLXD1ZILqwCPSWzRJ-117" value="```" style="rounded=0;whiteSpace=wrap;html=1;" vertex="1" parent="1">
          <mxGeometry x="595" y="460" width="30" height="20" as="geometry" />
        </mxCell>
        <mxCell id="XByTLXD1ZILqwCPSWzRJ-118" value="x&lt;sub&gt;N&lt;/sub&gt;" style="rounded=0;whiteSpace=wrap;html=1;" vertex="1" parent="1">
          <mxGeometry x="625" y="460" width="30" height="20" as="geometry" />
        </mxCell>
        <mxCell id="XByTLXD1ZILqwCPSWzRJ-119" value="" style="endArrow=classic;html=1;exitX=0.5;exitY=1;exitDx=0;exitDy=0;entryX=0.5;entryY=0;entryDx=0;entryDy=0;" edge="1" parent="1" source="XByTLXD1ZILqwCPSWzRJ-106" target="XByTLXD1ZILqwCPSWzRJ-108">
          <mxGeometry width="50" height="50" relative="1" as="geometry">
            <mxPoint x="640" y="630" as="sourcePoint" />
            <mxPoint x="690" y="580" as="targetPoint" />
          </mxGeometry>
        </mxCell>
        <mxCell id="XByTLXD1ZILqwCPSWzRJ-120" value="" style="endArrow=classic;html=1;exitX=0.5;exitY=1;exitDx=0;exitDy=0;entryX=0.5;entryY=0;entryDx=0;entryDy=0;" edge="1" parent="1" source="XByTLXD1ZILqwCPSWzRJ-108" target="XByTLXD1ZILqwCPSWzRJ-116">
          <mxGeometry width="50" height="50" relative="1" as="geometry">
            <mxPoint x="590" y="410" as="sourcePoint" />
            <mxPoint x="590" y="427.5" as="targetPoint" />
          </mxGeometry>
        </mxCell>
        <mxCell id="XByTLXD1ZILqwCPSWzRJ-121" value="" style="endArrow=classic;html=1;exitX=0.5;exitY=1;exitDx=0;exitDy=0;entryX=0.5;entryY=0;entryDx=0;entryDy=0;" edge="1" parent="1" source="XByTLXD1ZILqwCPSWzRJ-116" target="XByTLXD1ZILqwCPSWzRJ-109">
          <mxGeometry width="50" height="50" relative="1" as="geometry">
            <mxPoint x="590" y="447.5" as="sourcePoint" />
            <mxPoint x="590" y="470" as="targetPoint" />
          </mxGeometry>
        </mxCell>
        <mxCell id="XByTLXD1ZILqwCPSWzRJ-122" value="候选集" style="text;html=1;strokeColor=none;fillColor=none;align=center;verticalAlign=middle;whiteSpace=wrap;rounded=0;" vertex="1" parent="1">
          <mxGeometry x="660" y="500" width="40" height="20" as="geometry" />
        </mxCell>
        <mxCell id="XByTLXD1ZILqwCPSWzRJ-123" value="" style="endArrow=classic;html=1;exitX=1;exitY=0.5;exitDx=0;exitDy=0;entryX=0;entryY=0.5;entryDx=0;entryDy=0;" edge="1" parent="1" source="XByTLXD1ZILqwCPSWzRJ-109" target="XByTLXD1ZILqwCPSWzRJ-122">
          <mxGeometry width="50" height="50" relative="1" as="geometry">
            <mxPoint x="560" y="630" as="sourcePoint" />
            <mxPoint x="610" y="580" as="targetPoint" />
          </mxGeometry>
        </mxCell>
      </root>
    </mxGraphModel>
  </diagram>
</mxfile>
